<?xml version="1.0" encoding="iso-8859-1"?>
<!-- Generator: Adobe Illustrator 19.0.0, SVG Export Plug-In . SVG Version: 6.00 Build 0)  -->
<svg version="1.1" id="Layer_1" xmlns="http://www.w3.org/2000/svg" xmlns:xlink="http://www.w3.org/1999/xlink" x="0px" y="0px"
	 viewBox="0 0 511.997 511.997" style="enable-background: new 0 0 511.997 511.997" xml:space="preserve">
<circle style="fill: #60D950" cx="256" cy="256" r="256"/>
<path style="fill: #fed298" d="M 85.4 166.5 l 85.3 42.4 c 0 0 63 -20.4 72.7 -17.2 c 1 0.3 2.6 0.9 4.7 1.8 l 0 0 c 19.6 8.2 82.9 38.5 82.9 38.5 l -18 -1.2 c 7.3 9.4 17.6 21.8 23.4 25.4 c 9.8 6.1 -13.5 23.3 -33.1 10.7 c -19.6 -12.6 -24.7 -27.9 -24.7 -27.9 l -9.7 1 l 67.8 62.3 l 10.8 12.9 c 9.3 11.2 -2.3 27.3 -17.5 22.4 c 0.2 0.2 -0.6 -0.1 -0.4 0.6 c 0.9 2.3 2.6 8 1 10.7 c -5.6 9.7 -14 17.1 -31.8 3.6 c 4.3 3.3 7 11 4 15.5 c -4.1 6.1 -8.6 8.9 -13.5 10.4 c -5.2 1.6 -13 -3.4 -17.3 -6.6 c 4.3 3.3 6.4 11.1 3.5 15.6 c -3.5 5.6 -14.8 13.9 -21.9 8.5 l -22.4 -17 c 0 0 -54.4 -52.7 -71.2 -66.7 c -16.8 -14 -39.7 -42.6 -39.7 -42.6 l -100.5 -55.8 l 65.4 -47.2 L 85.4 166.5 z"/>
<path style="fill: #0f7986" d="M 0.9 234.2 l 73.6 49.2 l 77.8 -102.1 L 58.7 92.9 C 26.4 131.9 5.4 180.7 0.9 234.2 H 0.9 z"/>
<path style="fill: #ffffff" d="M 150.2 184 l -65.6 86.1 l 12.6 9.6 l 65.6 -86.1 L 150.2 184 z"/>
<path style="fill: #f0ba7d" d="M 426.6 166.5 l -85.3 42.4 c -6.8 3.4 -31.3 -12.7 -51.5 -15.1 c -14.6 -1.8 -32.2 3.9 -31.2 4.4 l 45.7 21.1 c 0 0 22.3 30.8 32.1 36.9 c 9.8 6.1 -13.5 23.3 -33.1 10.7 c -19.6 -12.6 -24.7 -27.9 -24.7 -27.9 l -40.4 4.2 l -78 68.9 c -10.8 9.5 -7.5 14.5 -0.2 23.8 c 3.3 4.3 15.5 2.8 20.6 0.9 c -11.8 9 5.2 32.1 21.9 19.4 c -10.1 7.7 4.4 34.8 24.6 19.4 c -10.1 13.6 10.5 23.5 19.1 21 l 6.3 -1.8 l -1.6 -1.2 c -0.5 0 -16.9 -16.8 -17.9 -18.8 c -5.6 -11.5 9.2 -27.1 22.4 -15.9 l 11.4 8.7 l -6.6 -8.4 c -8.4 -11 -1.9 -22.4 6.1 -25.9 c 5.9 -2.5 12 0.3 17 5.2 l 12.6 10.1 l -10.7 -12.5 c 0 0 -10.3 -11.6 -0.8 -22 c 9.4 -10.4 22.2 2.1 22.2 2.1 l 15 12.4 l -12.9 -15 c 0 0 -11.2 -11.8 -3.7 -19.7 c 10.5 -11 23.5 -0.2 33.7 10.6 c 2.9 3.1 6 7.9 8.3 10.1 c 11.3 -12.7 18.9 -26.5 18.9 -26.5 l 126.1 -74.4 l -65.4 -47.2 L 426.6 166.5 z"/>
<path style="fill: #FCEC51" d="M 511.1 234.2 l -73.6 49.2 L 359.7 181.3 l 93.6 -88.4 c 32.3 39 53.2 87.8 57.8 141.3 H 511.1 z"/>
<path style="fill: #ffffff" d="M 361.8 184 l 65.6 86.1 l -12.6 9.6 l -65.5 -86.1 L 361.8 184 z"/>
<path style="fill: #ecf0f1" d="M 67.4 256.2 c 2.6 0 4.7 2.1 4.7 4.7 c 0 2.6 -2.1 4.7 -4.7 4.7 c -2.6 0 -4.7 -2.1 -4.7 -4.7 C 62.7 258.3 64.8 256.2 67.4 256.2 z M 53.5 247.5 c 2.6 0 4.7 2.1 4.7 4.7 c 0 2.6 -2.1 4.7 -4.7 4.7 c -2.6 0 -4.7 -2.1 -4.7 -4.7 C 48.8 249.6 50.9 247.5 53.5 247.5 z"/>
<path style="fill: #ffffff" d="M 447.4 258.7 c -2.6 0 -4.7 2.1 -4.7 4.7 s 2.1 4.7 4.7 4.7 c 2.6 0 4.7 -2.1 4.7 -4.7 C 452.1 260.8 450 258.7 447.4 258.7 z M 461.3 250 c -2.6 0 -4.7 2.1 -4.7 4.7 c 0 2.6 2.1 4.7 4.7 4.7 c 2.6 0 4.7 -2.1 4.7 -4.7 S 463.9 250 461.3 250 z"/>
</svg>
